<svg width="20" height="20" viewBox="0 0 20 20" fill="none" xmlns="http://www.w3.org/2000/svg">
<path d="M12.2789 13.9161V14.7347C12.2789 16.091 11.1795 17.1905 9.82317 17.1905C8.46687 17.1905 7.36738 16.091 7.36738 14.7347V13.9161M12.2789 13.9161H7.36738M12.2789 13.9161H15.2181C15.5312 13.9161 15.6886 13.9161 15.8154 13.8734C16.0575 13.7917 16.2471 13.6015 16.3287 13.3593C16.3717 13.232 16.3717 13.0742 16.3717 12.7586C16.3717 12.6205 16.3715 12.5514 16.3607 12.4856C16.3403 12.3612 16.292 12.2432 16.2185 12.1408C16.1796 12.0867 16.1302 12.0373 16.0329 11.9399L15.714 11.621C15.6111 11.5181 15.5533 11.3786 15.5533 11.2331V8.18597C15.5533 5.02128 12.9878 2.4558 9.82317 2.45581C6.65849 2.45582 4.09301 5.0213 4.09301 8.18597V11.2331C4.09301 11.3786 4.03509 11.5181 3.93221 11.621L3.61336 11.9399C3.5157 12.0375 3.46682 12.0866 3.4279 12.1408C3.35435 12.2432 3.30564 12.3612 3.28522 12.4856C3.27441 12.5514 3.27441 12.6205 3.27441 12.7586C3.27441 13.0742 3.27441 13.232 3.31735 13.3593C3.39905 13.6015 3.58941 13.7917 3.8316 13.8734C3.9584 13.9161 4.11512 13.9161 4.42827 13.9161H7.36738" stroke="#161B37" stroke-linecap="round" stroke-linejoin="round"/>
</svg>
