<svg width="20" height="20" viewBox="0 0 20 20" fill="none" xmlns="http://www.w3.org/2000/svg">

<path d="M12.3424 16.6583L12.5092 16.3586C12.5351 16.312 12.5481 16.2891 12.5615 16.2666C12.6954 16.0431 12.8805 15.8547 13.1018 15.7172C13.1241 15.7033 13.1474 15.6903 13.1936 15.6636C13.2397 15.637 13.2631 15.6235 13.2862 15.6111C13.5165 15.4878 13.7731 15.4211 14.0343 15.4171C14.0606 15.4167 14.0874 15.4168 14.1408 15.4177L14.4889 15.4235C15.0459 15.4329 15.3254 15.4376 15.5761 15.3593C15.7988 15.2898 16.004 15.1734 16.1781 15.0181C16.3749 14.8425 16.5153 14.5994 16.7957 14.1128L17.0286 13.7085C17.3083 13.2232 17.4482 12.9805 17.5015 12.7228C17.5487 12.4949 17.5465 12.2597 17.4955 12.0326C17.4379 11.7762 17.2944 11.5366 17.0075 11.0575L17.0062 11.0547L16.8328 10.7651C16.8054 10.7193 16.7916 10.6961 16.7788 10.6732C16.6522 10.4454 16.5821 10.1911 16.5738 9.93056C16.5729 9.90431 16.5729 9.8776 16.5729 9.82419C16.5729 9.77112 16.5729 9.74327 16.5738 9.71707C16.5822 9.45601 16.6526 9.20118 16.7797 8.97302C16.7926 8.95003 16.8065 8.92728 16.834 8.88139L17.009 8.58991C17.2986 8.10754 17.4436 7.86599 17.5015 7.60823C17.5526 7.3802 17.5541 7.14417 17.5063 6.9154C17.4523 6.6571 17.3114 6.41431 17.0296 5.92873L17.0286 5.92657L16.7969 5.52737L16.7942 5.52296C16.5149 5.04175 16.375 4.80057 16.179 4.62644C16.0051 4.47192 15.8002 4.35643 15.5781 4.2873C15.327 4.20916 15.047 4.21332 14.4873 4.22274L14.1397 4.22859C14.087 4.22947 14.0609 4.23101 14.035 4.23063C13.7733 4.22675 13.5161 4.15916 13.2854 4.03546C13.2626 4.02322 13.2398 4.01004 13.1942 3.98372C13.1486 3.95737 13.1259 3.94462 13.1039 3.93096C12.8814 3.79284 12.6953 3.60356 12.5611 3.37861C12.5479 3.35635 12.5351 3.3329 12.5096 3.28683L12.3456 2.99085C12.0727 2.49841 11.9361 2.25225 11.7417 2.07313C11.5698 1.91467 11.3659 1.79497 11.1438 1.7219C10.8927 1.6393 10.6112 1.63937 10.0482 1.64065L9.58804 1.6417C9.0288 1.64297 8.74937 1.64471 8.50001 1.72749C8.2794 1.80073 8.07667 1.91956 7.90578 2.07713C7.71262 2.25523 7.57689 2.49895 7.30502 2.98765L7.14184 3.28099C7.11407 3.33091 7.10036 3.35603 7.08586 3.38011C6.95163 3.60302 6.76605 3.79082 6.54479 3.92776C6.52088 3.94255 6.49607 3.95675 6.44646 3.98515C6.39745 4.0132 6.37296 4.02755 6.3484 4.04052C6.12108 4.16059 5.86851 4.22487 5.61148 4.22926C5.58371 4.22973 5.55562 4.22932 5.49916 4.22837L5.16557 4.22274C4.60394 4.21326 4.32281 4.20913 4.07103 4.28773C3.84829 4.35726 3.64317 4.47348 3.46906 4.62884C3.27226 4.80445 3.13196 5.0479 2.85152 5.53457L2.61863 5.93871C2.33897 6.42402 2.19927 6.66658 2.14594 6.92423C2.09877 7.15216 2.1006 7.38752 2.15159 7.61463C2.20921 7.87132 2.35323 8.11184 2.64092 8.59231L2.81435 8.88194C2.84178 8.92777 2.85554 8.95097 2.86831 8.97393C2.99496 9.20172 3.06535 9.45577 3.07371 9.71627C3.07456 9.74253 3.07456 9.76923 3.07456 9.82264C3.07456 9.87616 3.07456 9.90284 3.07371 9.92915C3.06531 10.1902 2.99468 10.4458 2.86751 10.674C2.85632 10.694 2.84423 10.7142 2.82301 10.7495L2.63816 11.0574C2.34852 11.5398 2.20395 11.7809 2.14611 12.0386C2.09495 12.2667 2.09286 12.5029 2.14064 12.7316C2.19458 12.9899 2.33578 13.2332 2.61744 13.7185L2.85261 14.1237C3.13208 14.6052 3.27221 14.8466 3.46826 15.0208C3.64218 15.1753 3.84691 15.291 4.06905 15.3601C4.31832 15.4377 4.59616 15.433 5.14779 15.4237L5.50755 15.4177C5.5602 15.4168 5.58639 15.4167 5.61228 15.417C5.87402 15.4209 6.13135 15.4874 6.36205 15.6111C6.38483 15.6233 6.40782 15.6366 6.45325 15.6628C6.49885 15.6892 6.52158 15.7028 6.54359 15.7165C6.76612 15.8546 6.95238 16.0441 7.08652 16.269C7.09963 16.291 7.11217 16.3136 7.13709 16.3586L7.13781 16.3602L7.30183 16.6561C7.57472 17.1486 7.71143 17.3952 7.90578 17.5743C8.07771 17.7328 8.28135 17.8523 8.50346 17.9254C8.75304 18.0075 9.03293 18.0069 9.58936 18.0056L10.0594 18.0045C10.6186 18.0033 10.898 18.0026 11.1474 17.9198C11.368 17.8466 11.5707 17.7271 11.7416 17.5695C11.9346 17.3916 12.0704 17.1475 12.3417 16.6598L12.3424 16.6583Z" stroke="#161B37" stroke-linecap="round" stroke-linejoin="round"/>

<path d="M9.82356 6.54902C8.01517 6.54902 6.54918 8.01501 6.54918 9.82339C6.54918 11.6318 8.01517 13.0978 9.82356 13.0978C11.6319 13.0978 13.0979 11.6318 13.0979 9.82339C13.0979 8.01501 11.6319 6.54902 9.82356 6.54902Z" stroke="#161B37" stroke-linecap="round" stroke-linejoin="round"/>

</svg>
