<svg width="40" height="40" viewBox="0 0 40 40" fill="none" xmlns="http://www.w3.org/2000/svg">
<path d="M34.3809 19.6463C34.3809 27.7841 27.7839 34.381 19.6462 34.381C11.5085 34.381 4.91151 27.7841 4.91151 19.6463C4.91151 11.5086 11.5085 4.91162 19.6462 4.91162C27.7839 4.91162 34.3809 11.5086 34.3809 19.6463Z" stroke="#161B37" stroke-linecap="round" stroke-linejoin="round"/>
<path d="M26.1952 27.0135C26.1952 24.753 23.2632 22.9205 19.6464 22.9205C16.0297 22.9205 13.0977 24.753 13.0977 27.0135M19.6464 20.4648C17.386 20.4648 15.5535 18.6323 15.5535 16.3718C15.5535 14.1113 17.386 12.2788 19.6464 12.2788C21.9069 12.2788 23.7394 14.1113 23.7394 16.3718C23.7394 18.6323 21.9069 20.4648 19.6464 20.4648Z" stroke="#161B37" stroke-linecap="round" stroke-linejoin="round"/>
</svg>
