<svg width="143" height="117" viewBox="0 0 143 117" fill="none" xmlns="http://www.w3.org/2000/svg">
<g filter="url(#filter0_d_194_840)">
<g filter="url(#filter1_di_194_840)">
<circle cx="60" cy="42" r="21" fill="#FBCA1C"/>
<circle cx="60" cy="42" r="21" fill="url(#paint0_radial_194_840)" fill-opacity="0.2"/>
</g>
<g filter="url(#filter2_di_194_840)">
<path d="M100.971 55C100.99 54.6691 101 54.3357 101 54C101 44.6112 93.3889 37 84 37C79.4821 37 75.3759 38.7624 72.3312 41.6372C70.7911 41.2216 69.1714 41 67.5 41C61.4546 41 56.0865 43.8997 52.7106 48.3841C51.6815 48.1331 50.6063 48 49.5 48C42.0441 48 36 54.0442 36 61.5C36 61.5348 36.0001 61.5695 36.0004 61.6042C36.0001 61.6286 36 61.653 36 61.6774C36 70.6921 43.3079 78 52.3226 78H78C90.7026 78 101 67.7025 101 55H100.971Z" fill="white"/>
<path d="M100.971 55C100.99 54.6691 101 54.3357 101 54C101 44.6112 93.3889 37 84 37C79.4821 37 75.3759 38.7624 72.3312 41.6372C70.7911 41.2216 69.1714 41 67.5 41C61.4546 41 56.0865 43.8997 52.7106 48.3841C51.6815 48.1331 50.6063 48 49.5 48C42.0441 48 36 54.0442 36 61.5C36 61.5348 36.0001 61.5695 36.0004 61.6042C36.0001 61.6286 36 61.653 36 61.6774C36 70.6921 43.3079 78 52.3226 78H78C90.7026 78 101 67.7025 101 55H100.971Z" fill="url(#paint1_radial_194_840)" fill-opacity="0.2"/>
</g>
<g filter="url(#filter3_di_194_840)">
<path d="M84 59.5C84 51.4919 90.4919 45 98.5 45H101C107.627 45 113 50.3726 113 57C113 63.6274 107.627 69 101 69H92C87.5817 69 84 65.4183 84 61V59.5Z" fill="white"/>
<path d="M84 59.5C84 51.4919 90.4919 45 98.5 45H101C107.627 45 113 50.3726 113 57C113 63.6274 107.627 69 101 69H92C87.5817 69 84 65.4183 84 61V59.5Z" fill="url(#paint2_radial_194_840)" fill-opacity="0.2"/>
</g>
<g filter="url(#filter4_di_194_840)">
<path d="M50 69C50 63.4772 45.5228 59 40 59H38.5C33.8056 59 30 62.8056 30 67.5C30 72.1944 33.8056 76 38.5 76H44.3333C47.4629 76 50 73.4629 50 70.3333V69Z" fill="white"/>
<path d="M50 69C50 63.4772 45.5228 59 40 59H38.5C33.8056 59 30 62.8056 30 67.5C30 72.1944 33.8056 76 38.5 76H44.3333C47.4629 76 50 73.4629 50 70.3333V69Z" fill="url(#paint3_radial_194_840)" fill-opacity="0.2"/>
</g>
</g>
<defs>
<filter id="filter0_d_194_840" x="0" y="0" width="143" height="118" filterUnits="userSpaceOnUse" color-interpolation-filters="sRGB">
<feFlood flood-opacity="0" result="BackgroundImageFix"/>
<feColorMatrix in="SourceAlpha" type="matrix" values="0 0 0 0 0 0 0 0 0 0 0 0 0 0 0 0 0 0 127 0" result="hardAlpha"/>
<feOffset dy="9"/>
<feGaussianBlur stdDeviation="15"/>
<feComposite in2="hardAlpha" operator="out"/>
<feColorMatrix type="matrix" values="0 0 0 0 0 0 0 0 0 0 0 0 0 0 0 0 0 0 0.05 0"/>
<feBlend mode="normal" in2="BackgroundImageFix" result="effect1_dropShadow_194_840"/>
<feBlend mode="normal" in="SourceGraphic" in2="effect1_dropShadow_194_840" result="shape"/>
</filter>
<filter id="filter1_di_194_840" x="31" y="13" width="58" height="58" filterUnits="userSpaceOnUse" color-interpolation-filters="sRGB">
<feFlood flood-opacity="0" result="BackgroundImageFix"/>
<feColorMatrix in="SourceAlpha" type="matrix" values="0 0 0 0 0 0 0 0 0 0 0 0 0 0 0 0 0 0 127 0" result="hardAlpha"/>
<feMorphology radius="3" operator="dilate" in="SourceAlpha" result="effect1_dropShadow_194_840"/>
<feOffset/>
<feGaussianBlur stdDeviation="2.5"/>
<feComposite in2="hardAlpha" operator="out"/>
<feColorMatrix type="matrix" values="0 0 0 0 0.984314 0 0 0 0 0.792157 0 0 0 0 0.109804 0 0 0 0.2 0"/>
<feBlend mode="normal" in2="BackgroundImageFix" result="effect1_dropShadow_194_840"/>
<feBlend mode="normal" in="SourceGraphic" in2="effect1_dropShadow_194_840" result="shape"/>
<feColorMatrix in="SourceAlpha" type="matrix" values="0 0 0 0 0 0 0 0 0 0 0 0 0 0 0 0 0 0 127 0" result="hardAlpha"/>
<feOffset/>
<feGaussianBlur stdDeviation="4.5"/>
<feComposite in2="hardAlpha" operator="arithmetic" k2="-1" k3="1"/>
<feColorMatrix type="matrix" values="0 0 0 0 0.984314 0 0 0 0 0.529569 0 0 0 0 0.109804 0 0 0 0.5 0"/>
<feBlend mode="normal" in2="shape" result="effect2_innerShadow_194_840"/>
</filter>
<filter id="filter2_di_194_840" x="20" y="31" width="97" height="73" filterUnits="userSpaceOnUse" color-interpolation-filters="sRGB">
<feFlood flood-opacity="0" result="BackgroundImageFix"/>
<feColorMatrix in="SourceAlpha" type="matrix" values="0 0 0 0 0 0 0 0 0 0 0 0 0 0 0 0 0 0 127 0" result="hardAlpha"/>
<feOffset dy="10"/>
<feGaussianBlur stdDeviation="8"/>
<feComposite in2="hardAlpha" operator="out"/>
<feColorMatrix type="matrix" values="0 0 0 0 0.301961 0 0 0 0 0.368627 0 0 0 0 0.435294 0 0 0 0.08 0"/>
<feBlend mode="normal" in2="BackgroundImageFix" result="effect1_dropShadow_194_840"/>
<feBlend mode="normal" in="SourceGraphic" in2="effect1_dropShadow_194_840" result="shape"/>
<feColorMatrix in="SourceAlpha" type="matrix" values="0 0 0 0 0 0 0 0 0 0 0 0 0 0 0 0 0 0 127 0" result="hardAlpha"/>
<feOffset/>
<feGaussianBlur stdDeviation="3"/>
<feComposite in2="hardAlpha" operator="arithmetic" k2="-1" k3="1"/>
<feColorMatrix type="matrix" values="0 0 0 0 0.301961 0 0 0 0 0.368627 0 0 0 0 0.435294 0 0 0 0.08 0"/>
<feBlend mode="normal" in2="shape" result="effect2_innerShadow_194_840"/>
</filter>
<filter id="filter3_di_194_840" x="68" y="34" width="61" height="56" filterUnits="userSpaceOnUse" color-interpolation-filters="sRGB">
<feFlood flood-opacity="0" result="BackgroundImageFix"/>
<feColorMatrix in="SourceAlpha" type="matrix" values="0 0 0 0 0 0 0 0 0 0 0 0 0 0 0 0 0 0 127 0" result="hardAlpha"/>
<feOffset dy="5"/>
<feGaussianBlur stdDeviation="8"/>
<feComposite in2="hardAlpha" operator="out"/>
<feColorMatrix type="matrix" values="0 0 0 0 0 0 0 0 0 0 0 0 0 0 0 0 0 0 0.14 0"/>
<feBlend mode="normal" in2="BackgroundImageFix" result="effect1_dropShadow_194_840"/>
<feBlend mode="normal" in="SourceGraphic" in2="effect1_dropShadow_194_840" result="shape"/>
<feColorMatrix in="SourceAlpha" type="matrix" values="0 0 0 0 0 0 0 0 0 0 0 0 0 0 0 0 0 0 127 0" result="hardAlpha"/>
<feOffset/>
<feGaussianBlur stdDeviation="5.5"/>
<feComposite in2="hardAlpha" operator="arithmetic" k2="-1" k3="1"/>
<feColorMatrix type="matrix" values="0 0 0 0 0.301961 0 0 0 0 0.368627 0 0 0 0 0.435294 0 0 0 0.08 0"/>
<feBlend mode="normal" in2="shape" result="effect2_innerShadow_194_840"/>
</filter>
<filter id="filter4_di_194_840" x="18" y="50" width="44" height="41" filterUnits="userSpaceOnUse" color-interpolation-filters="sRGB">
<feFlood flood-opacity="0" result="BackgroundImageFix"/>
<feColorMatrix in="SourceAlpha" type="matrix" values="0 0 0 0 0 0 0 0 0 0 0 0 0 0 0 0 0 0 127 0" result="hardAlpha"/>
<feOffset dy="3"/>
<feGaussianBlur stdDeviation="6"/>
<feComposite in2="hardAlpha" operator="out"/>
<feColorMatrix type="matrix" values="0 0 0 0 0.301961 0 0 0 0 0.368627 0 0 0 0 0.435294 0 0 0 0.14 0"/>
<feBlend mode="normal" in2="BackgroundImageFix" result="effect1_dropShadow_194_840"/>
<feBlend mode="normal" in="SourceGraphic" in2="effect1_dropShadow_194_840" result="shape"/>
<feColorMatrix in="SourceAlpha" type="matrix" values="0 0 0 0 0 0 0 0 0 0 0 0 0 0 0 0 0 0 127 0" result="hardAlpha"/>
<feOffset/>
<feGaussianBlur stdDeviation="2"/>
<feComposite in2="hardAlpha" operator="arithmetic" k2="-1" k3="1"/>
<feColorMatrix type="matrix" values="0 0 0 0 0.301961 0 0 0 0 0.368627 0 0 0 0 0.435294 0 0 0 0.11 0"/>
<feBlend mode="normal" in2="shape" result="effect2_innerShadow_194_840"/>
</filter>
<radialGradient id="paint0_radial_194_840" cx="0" cy="0" r="1" gradientUnits="userSpaceOnUse" gradientTransform="translate(55 34) rotate(50.7106) scale(28.4253 19.8578)">
<stop stop-color="#FBCA1C"/>
<stop offset="1" stop-color="#E4750E"/>
</radialGradient>
<radialGradient id="paint1_radial_194_840" cx="0" cy="0" r="1" gradientUnits="userSpaceOnUse" gradientTransform="translate(81.5 41) rotate(121.827) scale(51.1981 81.1678)">
<stop stop-opacity="0"/>
<stop offset="1" stop-color="#4D5E6F"/>
</radialGradient>
<radialGradient id="paint2_radial_194_840" cx="0" cy="0" r="1" gradientUnits="userSpaceOnUse" gradientTransform="translate(80.5 35) rotate(49.5378) scale(44.6878 30.2267)">
<stop stop-color="#4D5E6F" stop-opacity="0"/>
<stop offset="1" stop-color="#4D5E6F" stop-opacity="0.54"/>
</radialGradient>
<radialGradient id="paint3_radial_194_840" cx="0" cy="0" r="1" gradientUnits="userSpaceOnUse" gradientTransform="translate(40 55) rotate(90) scale(23 27.0588)">
<stop stop-color="#4D5E6F" stop-opacity="0"/>
<stop offset="1" stop-color="#4D5E6F" stop-opacity="0.62"/>
</radialGradient>
</defs>
</svg>
