<svg width="18" height="18" viewBox="0 0 18 18" fill="none" xmlns="http://www.w3.org/2000/svg">
<path d="M2.86492 12.1767V8.20284C2.86492 7.82012 2.86525 7.62865 2.91179 7.45055C2.95303 7.29273 3.02073 7.14337 3.11235 7.00841C3.21573 6.85611 3.35947 6.72981 3.6475 6.47778L7.0856 3.46945C7.62037 3.00152 7.88776 2.76767 8.18868 2.67868C8.45384 2.60027 8.73647 2.60027 9.00162 2.67868C9.30232 2.76761 9.56932 3.00123 10.1033 3.46845L13.5425 6.47778C13.8306 6.72981 13.9742 6.85611 14.0776 7.00841C14.1692 7.14337 14.2375 7.29273 14.2787 7.45055C14.3252 7.62865 14.3252 7.82011 14.3252 8.20284V12.1767C14.3252 12.8441 14.3252 13.1778 14.2162 13.441C14.0708 13.792 13.7921 14.0713 13.4411 14.2166C13.1778 14.3257 12.8441 14.3257 12.1766 14.3257C11.5091 14.3257 11.175 14.3257 10.9118 14.2166C10.5608 14.0713 10.2821 13.7921 10.1367 13.4411C10.0277 13.1778 10.0276 12.8441 10.0276 12.1766V11.4603C10.0276 10.6692 9.38625 10.0278 8.59508 10.0278C7.80391 10.0278 7.16254 10.6692 7.16254 11.4603V12.1766C7.16254 12.8441 7.16254 13.1778 7.0535 13.4411C6.9081 13.7921 6.62941 14.0713 6.2784 14.2166C6.01514 14.3257 5.6814 14.3257 5.01392 14.3257C4.34644 14.3257 4.01233 14.3257 3.74907 14.2166C3.39806 14.0713 3.11944 13.792 2.97404 13.441C2.865 13.1778 2.86492 12.8441 2.86492 12.1767Z" stroke="#050711" stroke-linecap="round" stroke-linejoin="round"/>
</svg>
