<svg width="20" height="20" viewBox="0 0 20 20" fill="none" xmlns="http://www.w3.org/2000/svg">
<path d="M3.27441 6.54877H16.3719M3.27441 6.54877V13.7526C3.27441 14.6695 3.27441 15.1277 3.45286 15.4779C3.60982 15.786 3.8601 16.0367 4.16815 16.1936C4.51802 16.3719 4.97627 16.3719 5.89139 16.3719H13.7553C14.6705 16.3719 15.128 16.3719 15.4779 16.1936C15.786 16.0367 16.0367 15.786 16.1937 15.4779C16.3719 15.128 16.3719 14.6704 16.3719 13.7553V6.54877M3.27441 6.54877V5.89406C3.27441 4.97715 3.27441 4.51835 3.45286 4.16813C3.60982 3.86008 3.8601 3.6098 4.16815 3.45284C4.51837 3.2744 4.97716 3.2744 5.89408 3.2744H6.54879M16.3719 6.54877V5.89137C16.3719 4.97625 16.3719 4.51801 16.1937 4.16813C16.0367 3.86008 15.786 3.6098 15.4779 3.45284C15.1277 3.2744 14.6695 3.2744 13.7526 3.2744H13.0975M6.54879 3.2744H13.0975M6.54879 3.2744V1.63721M13.0975 3.2744V1.63721M11.4603 13.0975L9.82317 11.4603M9.82317 11.4603L8.18598 9.82315M9.82317 11.4603L11.4604 9.82315M9.82317 11.4603L8.18598 13.0975" stroke="#161B37" stroke-linecap="round" stroke-linejoin="round"/>
</svg>
