<svg width="20" height="20" viewBox="0 0 20 20" fill="none" xmlns="http://www.w3.org/2000/svg">
<path d="M9.1969 1.94323C8.89604 2.06785 8.62632 2.33757 8.08692 2.87696C7.54765 3.41623 7.27782 3.68606 7.15322 3.98689C6.98705 4.38805 6.98705 4.83883 7.15322 5.23999C7.27784 5.54085 7.54754 5.81056 8.08695 6.34996C8.62605 6.88906 8.89609 7.15911 9.19688 7.2837C9.59803 7.44986 10.0488 7.44986 10.45 7.2837C10.7508 7.15907 11.0205 6.88937 11.56 6.34997C12.0994 5.81056 12.3683 5.54085 12.4929 5.23999C12.6591 4.83883 12.6591 4.38805 12.4929 3.98689C12.3683 3.68602 12.0994 3.41636 11.56 2.87696C11.0205 2.33756 10.7508 2.06785 10.45 1.94323C10.0488 1.77706 9.59806 1.77706 9.1969 1.94323Z" stroke="#161B37" stroke-linecap="round" stroke-linejoin="round"/>
<path d="M3.98716 7.15257C3.68629 7.27719 3.41658 7.5469 2.87718 8.0863C2.33793 8.62556 2.06808 8.89541 1.94347 9.19623C1.77731 9.59739 1.77731 10.0482 1.94347 10.4493C2.06809 10.7502 2.3378 11.0199 2.8772 11.5593C3.4163 12.0984 3.68635 12.3685 3.98713 12.493C4.38829 12.6592 4.83907 12.6592 5.24023 12.493C5.5411 12.3684 5.8108 12.0987 6.35021 11.5593C6.88961 11.0199 7.15852 10.7502 7.28314 10.4493C7.44931 10.0482 7.44931 9.59739 7.28314 9.19623C7.15852 8.89537 6.88961 8.62571 6.35021 8.0863C5.8108 7.5469 5.5411 7.27719 5.24023 7.15257C4.83907 6.98641 4.38831 6.98641 3.98716 7.15257Z" stroke="#161B37" stroke-linecap="round" stroke-linejoin="round"/>
<path d="M13.2967 8.0863C12.7574 8.62557 12.4876 8.8954 12.363 9.19623C12.1968 9.59739 12.1968 10.0482 12.363 10.4493C12.4876 10.7502 12.7573 11.0199 13.2967 11.5593C13.8358 12.0984 14.1058 12.3685 14.4066 12.493C14.8078 12.6592 15.2586 12.6592 15.6597 12.493C15.9606 12.3684 16.2303 12.0987 16.7697 11.5593C17.3091 11.0199 17.578 10.7502 17.7026 10.4493C17.8688 10.0482 17.8688 9.59739 17.7026 9.19623C17.578 8.89537 17.3091 8.6257 16.7697 8.0863C16.2303 7.5469 15.9606 7.27719 15.6597 7.15257C15.2586 6.98641 14.8078 6.98641 14.4066 7.15257C14.1058 7.27719 13.8361 7.54691 13.2967 8.0863Z" stroke="#161B37" stroke-linecap="round" stroke-linejoin="round"/>
<path d="M9.1969 12.3623C8.89603 12.4869 8.62633 12.7566 8.08692 13.296C7.54767 13.8353 7.27782 14.1052 7.15322 14.406C6.98705 14.8071 6.98705 15.2579 7.15322 15.6591C7.27784 15.9599 7.54754 16.2296 8.08695 16.7691C8.62604 17.3081 8.8961 17.5782 9.19688 17.7028C9.59803 17.869 10.0488 17.8689 10.45 17.7028C10.7508 17.5782 11.0205 17.3085 11.56 16.7691C12.0994 16.2296 12.3683 15.9599 12.4929 15.6591C12.6591 15.2579 12.6591 14.8071 12.4929 14.406C12.3683 14.1051 12.0994 13.8355 11.56 13.296C11.0205 12.7566 10.7508 12.4869 10.45 12.3623C10.0488 12.1962 9.59806 12.1962 9.1969 12.3623Z" stroke="#161B37" stroke-linecap="round" stroke-linejoin="round"/>
</svg>
