<svg width="18" height="18" viewBox="0 0 18 18" fill="none" xmlns="http://www.w3.org/2000/svg">
<path d="M12.463 6.44642H4.72727M12.463 6.44642C12.8641 6.44642 13.0652 6.44642 13.2184 6.52449C13.3532 6.59316 13.4627 6.70265 13.5314 6.83743C13.6094 6.99065 13.6094 7.19137 13.6094 7.59252V11.3171C13.6094 12.1194 13.6094 12.5206 13.4533 12.8271C13.316 13.0966 13.097 13.3158 12.8274 13.4531C12.5213 13.6091 12.1203 13.6091 11.3196 13.6091H5.87176C5.07103 13.6091 4.67065 13.6091 4.36451 13.4531C4.09496 13.3158 3.87498 13.0966 3.73764 12.827C3.58165 12.5209 3.58165 12.1204 3.58165 11.3197V7.58602C3.58165 7.1892 3.58165 6.98982 3.6593 6.83743C3.72797 6.70265 3.83797 6.59316 3.97274 6.52449C4.12596 6.44642 4.32612 6.44642 4.72727 6.44642M12.463 6.44642H13.6271C14.2353 6.44642 14.5392 6.44642 14.7118 6.3401C14.9422 6.19821 15.0728 5.93843 15.0497 5.66889C15.0323 5.46673 14.8513 5.22223 14.4887 4.73267C14.3838 4.59107 14.3313 4.52025 14.2671 4.46618C14.1815 4.39409 14.08 4.34289 13.9711 4.31701C13.8894 4.29761 13.8017 4.29761 13.6255 4.29761H3.56596C3.38973 4.29761 3.30185 4.29761 3.22018 4.31701C3.1113 4.34289 3.00975 4.39409 2.92414 4.46618C2.85994 4.52025 2.80729 4.59074 2.7024 4.73234C2.33977 5.2219 2.15844 5.46669 2.14112 5.66885C2.11803 5.93839 2.2491 6.19821 2.47945 6.3401C2.65205 6.44642 2.95668 6.44642 3.56487 6.44642H4.72727M10.0281 10.0278H7.163" stroke="#161B37" stroke-linecap="round" stroke-linejoin="round"/>
</svg>
