<svg width="38" height="38" viewBox="0 0 38 38" fill="none" xmlns="http://www.w3.org/2000/svg">
<path d="M19 4.75C26.8701 4.75 33.25 11.1299 33.25 19C33.25 26.8701 26.8701 33.25 19 33.25C11.1299 33.25 4.75 26.8701 4.75 19C4.75 11.1299 11.1299 4.75 19 4.75Z" stroke="#161B37" stroke-linecap="round" stroke-linejoin="round"/>
<path d="M18.3941 11.3794C18.1032 11.5 17.8423 11.7608 17.3207 12.2825C16.7991 12.804 16.5382 13.0649 16.4177 13.3559C16.257 13.7438 16.257 14.1798 16.4177 14.5677C16.5382 14.8587 16.799 15.1196 17.3207 15.6412C17.8421 16.1626 18.1032 16.4237 18.3941 16.5442C18.7821 16.7049 19.218 16.7049 19.606 16.5442C19.897 16.4237 20.1578 16.1629 20.6795 15.6412C21.2011 15.1196 21.4612 14.8587 21.5817 14.5677C21.7424 14.1798 21.7424 13.7438 21.5817 13.3559C21.4612 13.0649 21.2011 12.8041 20.6795 12.2825C20.1578 11.7608 19.897 11.5 19.606 11.3794C19.218 11.2187 18.7821 11.2187 18.3941 11.3794Z" stroke="#161B37" stroke-linecap="round" stroke-linejoin="round"/>
<path d="M13.3558 16.4174C13.0648 16.5379 12.804 16.7988 12.2823 17.3204C11.7608 17.842 11.4998 18.1029 11.3793 18.3939C11.2186 18.7818 11.2186 19.2178 11.3793 19.6057C11.4998 19.8967 11.7607 20.1575 12.2823 20.6792C12.8037 21.2006 13.0649 21.4617 13.3557 21.5822C13.7437 21.7429 14.1797 21.7429 14.5676 21.5822C14.8586 21.4617 15.1194 21.2009 15.6411 20.6792C16.1628 20.1575 16.4228 19.8967 16.5433 19.6057C16.704 19.2178 16.704 18.7818 16.5433 18.3939C16.4228 18.1029 16.1628 17.8421 15.6411 17.3204C15.1194 16.7988 14.8586 16.5379 14.5676 16.4174C14.1797 16.2567 13.7437 16.2567 13.3558 16.4174Z" stroke="#161B37" stroke-linecap="round" stroke-linejoin="round"/>
<path d="M22.359 17.3204C21.8375 17.842 21.5766 18.1029 21.4561 18.3939C21.2954 18.7818 21.2954 19.2178 21.4561 19.6057C21.5766 19.8967 21.8374 20.1575 22.3591 20.6792C22.8804 21.2006 23.1416 21.4617 23.4325 21.5822C23.8205 21.7429 24.2564 21.7429 24.6444 21.5822C24.9353 21.4617 25.1962 21.2009 25.7178 20.6792C26.2395 20.1575 26.4996 19.8967 26.6201 19.6057C26.7808 19.2178 26.7808 18.7818 26.6201 18.3939C26.4996 18.1029 26.2395 17.8421 25.7178 17.3204C25.1962 16.7988 24.9353 16.5379 24.6444 16.4174C24.2564 16.2567 23.8205 16.2567 23.4325 16.4174C23.1415 16.5379 22.8807 16.7988 22.359 17.3204Z" stroke="#161B37" stroke-linecap="round" stroke-linejoin="round"/>
<path d="M18.3941 21.4558C18.1032 21.5763 17.8423 21.8371 17.3207 22.3588C16.7992 22.8803 16.5382 23.1413 16.4177 23.4322C16.257 23.8202 16.257 24.2561 16.4177 24.6441C16.5382 24.9351 16.799 25.1959 17.3207 25.7176C17.8421 26.2389 18.1032 26.5001 18.3941 26.6206C18.7821 26.7813 19.218 26.7813 19.606 26.6206C19.897 26.5001 20.1578 26.2392 20.6795 25.7176C21.2011 25.1959 21.4612 24.9351 21.5817 24.6441C21.7424 24.2561 21.7424 23.8202 21.5817 23.4322C21.4612 23.1413 21.2011 22.8805 20.6795 22.3588C20.1578 21.8371 19.897 21.5763 19.606 21.4558C19.218 21.2951 18.7821 21.2951 18.3941 21.4558Z" stroke="#161B37" stroke-linecap="round" stroke-linejoin="round"/>
</svg>
