<svg width="23" height="23" viewBox="0 0 23 23" fill="none" xmlns="http://www.w3.org/2000/svg">
<path d="M2.15034 9.51922C1.86187 9.25245 2.01857 8.77017 2.40876 8.7239L7.93756 8.06813C8.09659 8.04927 8.23472 7.94941 8.30179 7.80399L10.6338 2.74834C10.7983 2.39155 11.3056 2.39148 11.4701 2.74828L13.8021 7.80388C13.8692 7.9493 14.0064 8.04943 14.1654 8.06829L19.6946 8.7239C20.0847 8.77017 20.241 9.25259 19.9525 9.51936L15.8654 13.2997C15.7478 13.4084 15.6955 13.5703 15.7267 13.7274L16.8114 19.1881C16.888 19.5735 16.4778 19.8721 16.135 19.6802L11.2768 16.9601C11.1371 16.8819 10.9673 16.8822 10.8276 16.9605L5.96891 19.6795C5.62605 19.8714 5.21514 19.5735 5.29172 19.1881L6.37661 13.7277C6.40781 13.5706 6.3556 13.4084 6.23803 13.2997L2.15034 9.51922Z" stroke="#FFAE00" stroke-linecap="round" stroke-linejoin="round"/>
</svg>
