<svg width="23" height="23" viewBox="0 0 23 23" fill="none" xmlns="http://www.w3.org/2000/svg">
<path d="M5.52543 5.52545V16.3923C5.52543 17.4238 5.52543 17.9392 5.72618 18.3332C5.90276 18.6798 6.18432 18.9621 6.53089 19.1387C6.92449 19.3392 7.44001 19.3392 8.46952 19.3392H13.6324C14.6619 19.3392 15.1766 19.3392 15.5703 19.1387C15.9168 18.9621 16.1993 18.6798 16.3759 18.3332C16.5765 17.9396 16.5765 17.4246 16.5765 16.3951V5.52545M5.52543 5.52545H7.36727M5.52543 5.52545H3.68359M7.36727 5.52545H14.7346M7.36727 5.52545C7.36727 4.66726 7.36727 4.23838 7.50747 3.8999C7.6944 3.4486 8.05272 3.08983 8.50403 2.9029C8.8425 2.7627 9.27183 2.7627 10.13 2.7627H11.9719C12.83 2.7627 13.2591 2.7627 13.5976 2.9029C14.0489 3.08983 14.4074 3.4486 14.5943 3.8999C14.7345 4.23838 14.7346 4.66726 14.7346 5.52545M14.7346 5.52545H16.5765M16.5765 5.52545H18.4183" stroke="#D91215" stroke-linecap="round" stroke-linejoin="round"/>
</svg>
