<svg width="22" height="22" viewBox="0 0 22 22" fill="none" xmlns="http://www.w3.org/2000/svg">
<path d="M3.6665 7.33325H18.3332M3.6665 7.33325V15.4001C3.6665 16.4269 3.6665 16.94 3.86633 17.3321C4.04209 17.6771 4.32235 17.9579 4.66732 18.1336C5.05911 18.3333 5.57225 18.3333 6.597 18.3333H15.4031C16.4279 18.3333 16.9403 18.3333 17.3321 18.1336C17.677 17.9579 17.9578 17.6771 18.1335 17.3321C18.3332 16.9404 18.3332 16.428 18.3332 15.4032V7.33325M3.6665 7.33325V6.6001C3.6665 5.57334 3.6665 5.05957 3.86633 4.6674C4.04209 4.32244 4.32235 4.04217 4.66732 3.86641C5.05949 3.66659 5.57325 3.66659 6.60002 3.66659H7.33317M18.3332 7.33325V6.59709C18.3332 5.57233 18.3332 5.05919 18.1335 4.6674C17.9578 4.32244 17.677 4.04217 17.3321 3.86641C16.9399 3.66659 16.4268 3.66659 15.4 3.66659H14.6665M7.33317 3.66659H14.6665M7.33317 3.66659V1.83325M14.6665 3.66659V1.83325M12.8332 14.6666L10.9998 12.8333M10.9998 12.8333L9.1665 10.9999M10.9998 12.8333L12.8332 10.9999M10.9998 12.8333L9.1665 14.6666" stroke="#161B37" stroke-linecap="round" stroke-linejoin="round"/>
</svg>
